<svg width="14" height="17" viewBox="0 0 14 17" fill="none" xmlns="http://www.w3.org/2000/svg">
<path d="M9.7941 6.61111C9.7941 8.17592 8.47861 9.44444 6.85587 9.44444C5.23313 9.44444 3.91764 8.17592 3.91764 6.61111C3.91764 5.0463 5.23313 3.77778 6.85587 3.77778C8.47861 3.77778 9.7941 5.0463 9.7941 6.61111Z" fill="#24976B"/>
<path fill-rule="evenodd" clip-rule="evenodd" d="M0 6.61111C0 11.5694 6.85587 17 6.85587 17C6.85587 17 13.7117 11.5694 13.7117 6.61111C13.7117 2.95611 10.6462 0 6.85587 0C3.06555 0 0 2.95611 0 6.61111ZM1.95882 6.61111C1.95882 3.99932 4.14738 1.88889 6.85587 1.88889C9.56436 1.88889 11.7529 3.99932 11.7529 6.61111C11.7529 8.36843 10.4643 10.5113 8.78084 12.4536C8.10108 13.2378 7.4173 13.9213 6.85587 14.4475C6.29443 13.9213 5.61066 13.2378 4.9309 12.4536C3.24742 10.5113 1.95882 8.36843 1.95882 6.61111Z" fill="#24976B"/>
</svg>
